<svg width="1542" height="756" viewBox="0 0 1542 756" fill="none" xmlns="http://www.w3.org/2000/svg">
<rect width="1542" height="755.265" fill="#0E0E0E"/>
<path d="M930.706 444.15C972.845 389.046 1051.71 424.28 1107.62 395.928C1143.52 377.728 1154.62 344.602 1154.62 307.315C1154.62 300.589 1129.74 298.685 1129.74 311.461C1129.74 350.967 1187.43 346.294 1204.38 320.369C1216.7 301.527 1218.2 277.926 1218.2 256.174C1218.2 236.077 1214.29 207.56 1229.26 192.594" stroke="#C4C4C4" stroke-opacity="0.4" stroke-width="1.85114" stroke-linecap="round" stroke-dasharray="9.26 9.26"/>
<line x1="899.5" y1="576" x2="899.5" y2="504" stroke="#C4C4C4" stroke-opacity="0.4"/>
<line x1="899.347" y1="503.64" x2="933.322" y2="536.471" stroke="#C4C4C4" stroke-opacity="0.4"/>
<line x1="932.9" y1="536.51" x2="1025.9" y2="517.51" stroke="#C4C4C4" stroke-opacity="0.4"/>
<path d="M1026 517.92L994 489" stroke="#C4C4C4" stroke-opacity="0.4"/>
<line x1="899.968" y1="503.389" x2="868.314" y2="528.879" stroke="#C4C4C4" stroke-opacity="0.4"/>
<path d="M994 489L900.021 504.004" stroke="#C4C4C4" stroke-opacity="0.4"/>
<line x1="1001.97" y1="522.014" x2="1002.5" y2="558.992" stroke="#C4C4C4" stroke-opacity="0.4"/>
<path d="M1002.91 558.705L899 576.325" stroke="#C4C4C4" stroke-opacity="0.4"/>
<line x1="868.839" y1="528.473" x2="771.839" y2="495.473" stroke="#C4C4C4" stroke-opacity="0.4"/>
<path d="M899.374 576.226L797 546" stroke="#C4C4C4" stroke-opacity="0.4"/>
<line x1="797.5" y1="546" x2="797.5" y2="504" stroke="#C4C4C4" stroke-opacity="0.4"/>
<line x1="899.526" y1="503.993" x2="799.871" y2="477.483" stroke="#C4C4C4" stroke-opacity="0.4"/>
<line x1="800.27" y1="477.421" x2="772.27" y2="495.421" stroke="#C4C4C4" stroke-opacity="0.4"/>
<line x1="799.98" y1="477.5" x2="899.98" y2="473.5" stroke="#C4C4C4" stroke-opacity="0.4"/>
<line x1="900.5" y1="473.015" x2="899.5" y2="506.015" stroke="#C4C4C4" stroke-opacity="0.4"/>
<path d="M900.5 473.5L995 489" stroke="#C4C4C4" stroke-opacity="0.4"/>
<path d="M1379.01 54.4916L1313.63 116.611L1235.8 93.1055L1379.01 54.4916Z" fill="#E5E5E5"/>
<mask id="path-20-inside-1_2_80" fill="white">
<path fill-rule="evenodd" clip-rule="evenodd" d="M1289.62 109.327L1379.01 54.4917L1264.06 102.281L1264.06 102.281L1264.06 102.281L1269.39 124.003L1289.62 109.327Z"/>
</mask>
<path fill-rule="evenodd" clip-rule="evenodd" d="M1289.62 109.327L1379.01 54.4917L1264.06 102.281L1264.06 102.281L1264.06 102.281L1269.39 124.003L1289.62 109.327Z" fill="#E5E5E5"/>
<path d="M1379.01 54.4917L1379.49 55.2806L1378.65 53.637L1379.01 54.4917ZM1289.62 109.327L1289.13 108.538L1289.1 108.557L1289.07 108.578L1289.62 109.327ZM1264.06 102.281L1263.71 101.427L1263.64 101.457L1263.57 101.498L1264.06 102.281ZM1264.06 102.281L1263.57 101.498L1261.97 102.508L1263.75 103.152L1264.06 102.281ZM1264.06 102.281L1264.96 102.061L1264.85 101.579L1264.38 101.411L1264.06 102.281ZM1269.39 124.003L1268.49 124.223L1268.82 125.561L1269.93 124.752L1269.39 124.003ZM1378.52 53.7027L1289.13 108.538L1290.1 110.116L1379.49 55.2806L1378.52 53.7027ZM1264.42 103.136L1379.36 55.3463L1378.65 53.637L1263.71 101.427L1264.42 103.136ZM1264.56 103.065L1264.56 103.065L1263.57 101.498L1263.57 101.498L1264.56 103.065ZM1264.38 101.411L1264.38 101.411L1263.75 103.152L1263.75 103.152L1264.38 101.411ZM1270.29 123.782L1264.96 102.061L1263.17 102.502L1268.49 124.223L1270.29 123.782ZM1289.07 108.578L1268.85 123.254L1269.93 124.752L1290.16 110.076L1289.07 108.578Z" fill="#0E0E0E" fill-opacity="0.21" mask="url(#path-20-inside-1_2_80)"/>
</svg>
